<?xml version="1.0" encoding="utf-8"?>
<!-- Generator: Adobe Illustrator 30.6.0, SVG Export Plug-In . SVG Version: 9.03 Build 0)  -->
<svg version="1.0" id="레이어_1" xmlns="http://www.w3.org/2000/svg" xmlns:xlink="http://www.w3.org/1999/xlink" x="0px"
	 y="0px" viewBox="0 0 157.9 21.5" style="enable-background:new 0 0 157.9 21.5;" xml:space="preserve">
<style type="text/css">
	.st0{fill:#FFFFFF;}
</style>
<g>
	<path class="st0" d="M1.7,1.5C0.6,2.5,0,3.9,0,5.5c0,3,2.5,4.6,5,6.1c2.2,1.3,4.2,2.6,4.2,4.7c0,1.4-1.3,2.9-3.7,2.9
		c-1.7,0-3.4-0.8-4.9-2.3l-0.5-0.5v3.3l0.1,0.1C2,21,3.7,21.6,5.9,21.6c3.4,0,5.8-2.4,5.8-5.6c0-1.7-0.6-3.1-1.8-4.3
		c-1-1-2.3-1.8-3.6-2.5C4.3,8.1,2.5,7,2.5,5.1c0-1.6,1.5-2.7,3.6-2.7C7.5,2.4,9,2.9,10.3,4l0.5,0.4v-3l-0.2-0.1C9.3,0.5,7.8,0,6.3,0
		C4.4,0,2.9,0.5,1.7,1.5z M73.5,1.5c-1.1,1-1.7,2.4-1.7,4c0,3,2.5,4.6,5,6.1c2.2,1.3,4.2,2.6,4.2,4.7c0,1.4-1.3,2.9-3.7,2.9
		c-1.7,0-3.4-0.8-4.9-2.3l-0.6-0.5v3.3l0.1,0.1c1.7,1.2,3.5,1.8,5.7,1.8c3.4,0,5.8-2.4,5.8-5.6c0-1.7-0.6-3.1-1.8-4.3
		c-1-1-2.3-1.8-3.6-2.5c-2-1.1-3.9-2.2-3.9-4.1c0-1.6,1.5-2.7,3.6-2.7c1.5,0,2.9,0.5,4.3,1.6l0.5,0.4v-3l-0.2-0.1
		C81,0.5,79.5,0,78,0C76.1,0,74.6,0.5,73.5,1.5L73.5,1.5z M30.3,0.3v9.3H19.1V0.3h-2.6v20.9h2.6v-9.3h11.2v9.3h2.6V0.3H30.3z
		 M39.5,0.3v20.9h2.6V0.3H39.5z M88.4,0.3v20.9h11.7v-2.3H91v-7h8.5V9.6H91v-7h8.8V0.3L88.4,0.3L88.4,0.3z M146.2,0.3v20.9h11.7
		v-2.3h-9.1v-7h8.5V9.6h-8.5v-7h8.8V0.3L146.2,0.3L146.2,0.3z M134.1,0.2h-1.9l-8.4,21h2.7l2.4-6.3h8.7l2.6,6.3l2.7,0L134.1,0.2z
		 M129.8,12.6l3.3-8.5l3.5,8.5H129.8z M120.9,4.3V1.6c-2.1-0.9-4.2-1.6-6.1-1.6c-3.5,0-6.1,0.9-8.2,2.8c-2.1,2-3,4.9-3,7.9
		c0,5.8,3.2,10.8,10.3,10.8c2.7,0,5.3-0.7,7-1.8l0.1-0.1v-10h-6.7v2.2h4.2v6.3c-1.3,0.7-3,1-4.6,1c-3.8-0.3-7.6-2.5-7.6-8.3
		c0-5.1,3-8.4,8.3-8.4C114.6,2.4,118.1,2.4,120.9,4.3L120.9,4.3z M64,0.3l0,16.3L51.3,0.3h-2.5v20.9h2.4V4.5l13,16.7h2.2V0.3H64z"/>
</g>
</svg>
