<svg xmlns="http://www.w3.org/2000/svg" xml:space="preserve" width="157.89301" height="21.549999" x="0px" y="0px" version="1.0" viewBox="0 0 157.893 21.549998"><g fill="#4F5556" style="fill:#000"><path d="M57.331 14.516c-1.134.985-1.732 2.375-1.732 4.019 0 3.031 2.549 4.573 5.013 6.063 2.174 1.313 4.222 2.553 4.222 4.708 0 1.394-1.283 2.878-3.658 2.878-1.721 0-3.416-.78-4.903-2.253l-.55-.548v3.289l.134.096c1.727 1.248 3.474 1.803 5.661 1.803 3.359 0 5.795-2.358 5.795-5.608 0-1.661-.584-3.057-1.782-4.268-1.032-1.037-2.34-1.778-3.606-2.492-1.978-1.117-3.85-2.171-3.85-4.074 0-1.603 1.465-2.724 3.568-2.724 1.467 0 2.915.543 4.305 1.61l.521.401v-2.965l-.152-.095c-1.397-.872-2.925-1.335-4.423-1.335-1.864.001-3.44.519-4.563 1.495zM129.05 14.516c-1.134.985-1.733 2.375-1.733 4.019 0 3.027 2.547 4.571 5.014 6.063 2.169 1.313 4.221 2.553 4.221 4.708 0 1.394-1.285 2.878-3.66 2.878-1.719 0-3.412-.78-4.899-2.253l-.552-.548v3.289l.135.096c1.729 1.248 3.473 1.803 5.662 1.803 3.357 0 5.795-2.358 5.795-5.608 0-1.661-.584-3.057-1.784-4.268-1.03-1.037-2.339-1.778-3.604-2.492-1.978-1.117-3.85-2.171-3.85-4.074 0-1.603 1.469-2.724 3.568-2.724 1.467 0 2.915.543 4.303 1.61l.521.403v-2.967l-.152-.095c-1.393-.872-2.927-1.335-4.424-1.335-1.863.001-3.439.519-4.561 1.495zM85.916 13.345v9.297H74.693v-9.297h-2.617v20.901h2.617v-9.299h11.223v9.299h2.619V13.345ZM95.146 13.345v20.901h2.619V13.345ZM143.982 13.345v20.901h11.74v-2.302h-9.117v-6.986h8.52v-2.306h-8.52V15.65h8.833v-2.306h-11.456zM201.754 13.345v20.901h11.738v-2.302h-9.117v-6.986h8.521v-2.306h-8.521V15.65h8.836v-2.306h-11.457zM189.725 13.219h-1.871l-8.436 21.027h2.713l2.424-6.287h8.676l2.625 6.288 2.674-.001zm-4.282 12.429 3.277-8.502 3.549 8.502zM176.506 17.361v-2.74c-2.057-.904-4.234-1.55-6.059-1.55-3.475 0-6.133.871-8.186 2.817-2.059 1.958-3.045 4.895-3.045 7.888 0 5.834 3.217 10.752 10.336 10.752 2.66 0 5.258-.67 6.951-1.797l.121-.084v-9.988h-6.699v2.205h4.18v6.326c-1.297.693-2.975 1.044-4.635.953-3.843-.312-7.561-2.549-7.561-8.277 0-5.136 3.023-8.419 8.305-8.419.001 0 3.47.022 6.292 1.914zM119.572 13.345l-.006 16.251-12.697-16.251h-2.5v20.902h2.433V17.531L119.8 34.248h2.204V13.345Z" style="fill:#000" transform="translate(-55.599 -13.021)"/></g></svg>