<?xml version="1.0" encoding="UTF-8"?>
<svg id="_레이어_2" data-name="레이어 2" xmlns="http://www.w3.org/2000/svg" viewBox="0 0 375.22 49.31">
  <defs>
    <style>
      .cls-1 {
        fill: #040000;
      }
    </style>
  </defs>
  <g id="_레이어_1-2" data-name="레이어 1">
    <g>
      <polygon class="cls-1" points="0 .54 9.63 .54 18.52 19.28 27.35 .54 36.99 .54 22.99 28.22 22.99 49.29 14.04 49.29 14.04 28.22 0 .54"/>
      <path class="cls-1" d="M61.25,8.26c-3.92,0-7.15,1.37-9.77,4.12-2.56,2.77-3.86,6.82-3.86,12.27s1.3,9.5,3.86,12.26c2.62,2.75,5.85,4.12,9.77,4.12s7.17-1.37,9.71-4.12c2.62-2.76,3.92-6.82,3.92-12.26s-1.31-9.5-3.92-12.27c-2.54-2.75-5.79-4.12-9.71-4.12M61.25,0c8.33,0,15.29,3.23,19.49,10.87,2.13,3.8,3.24,8.4,3.24,13.78,0,10.75-4.76,18.6-11.44,22.12-3.37,1.71-7.08,2.54-11.29,2.54-8.33,0-15.22-3.24-19.55-10.89-2.14-3.79-3.18-8.4-3.18-13.77,0-10.75,4.76-18.66,11.44-22.04,3.38-1.71,7.1-2.61,11.29-2.61"/>
      <path class="cls-1" d="M125.75.54v29.9c0,12.46-6.95,18.87-17.97,18.87s-17.97-6.41-17.97-18.87V.54h8.95v30.03c0,6.96,3.03,10.47,9.02,10.47s9.02-3.51,9.02-10.47V.54h8.95Z"/>
      <path class="cls-1" d="M166.89,12.38l-5.1,16.74h10.19l-5.09-16.74ZM178.04,48.75l-3.52-11.36h-15.29l-3.51,11.36h-9.64L162.41.54h8.95l16.31,48.22h-9.63Z"/>
      <polygon class="cls-1" points="221.58 .54 230.52 .54 230.52 48.75 221.09 48.75 203.39 16.94 203.39 48.75 194.45 48.75 194.45 .54 203.88 .54 221.58 32.36 221.58 .54"/>
      <path class="cls-1" d="M249.89,40.49h3.31c4.2,0,7.64-.9,10.89-3.1,3.3-2.21,5.3-6.62,5.3-12.74s-2-10.53-5.3-12.74c-3.24-2.19-6.69-3.09-10.89-3.09h-3.31v31.68ZM240.94,48.75V.54h15.08c11.36,0,22.45,7.31,22.45,24.11s-11.08,24.1-22.45,24.1h-15.08Z"/>
      <path class="cls-1" d="M336.67.54v29.9c0,12.46-6.95,18.87-17.98,18.87s-17.96-6.41-17.96-18.87V.54h8.95v30.03c0,6.96,3.02,10.47,9.01,10.47s9.02-3.51,9.02-10.47V.54h8.96Z"/>
      <path class="cls-1" d="M365.93,13.35c-1.72-3.38-4-5.09-6.67-5.09s-4.62,1.85-4.62,4.41c0,3.03,3.31,5.3,7.23,7.15,5.79,2.55,13.42,6.14,13.35,14.47,0,9.37-6.05,15.02-15.41,15.02-4.21,0-7.86-1.31-10.88-3.86-3.02-2.61-4.95-5.85-5.72-9.63l7.23-4.55c1.87,6.55,5.03,9.78,9.57,9.78,4.2,0,6.27-2.06,6.27-6.26,0-2.82-3.09-5.03-7.16-6.75-5.71-2.41-13.15-6.06-13.02-14.94,0-3.66,1.25-6.75,3.73-9.3C352.36,1.24,355.46,0,359.26,0c6.53,0,11.15,2.89,13.9,8.74l-7.23,4.61Z"/>
    </g>
  </g>
</svg>